<mxfile host="app.diagrams.net" modified="2023-10-03T09:10:13.552Z" agent="Mozilla/5.0 (Windows NT 10.0; Win64; x64; rv:109.0) Gecko/20100101 Firefox/118.0" version="21.3.3" etag="3-Mvve_JmhAFnqqhhEhu" type="github">
  <diagram name="PÃ¡gina-1" id="a9OpOxoqKZUje1Js9BW5">
    <mxGraphModel>
      <root>
        <mxCell id="0" />
        <mxCell id="1" parent="0" />
      </root>
    </mxGraphModel>
  </diagram>
</mxfile>
